<svg width="200" height="200" viewBox="0 0 64 64" fill="none" xmlns="http://www.w3.org/2000/svg" class="" role="img" aria-label="NovelVerse Icon"><defs><radialGradient id="nebula-glow" cx="0" cy="0" r="1" gradientUnits="userSpaceOnUse" gradientTransform="translate(32 32) rotate(90) scale(24)"><stop stop-color="#a855f7" stop-opacity="0.4"></stop><stop offset="0.7" stop-color="#a855f7" stop-opacity="0.1"></stop><stop offset="1" stop-color="#a855f7" stop-opacity="0"></stop></radialGradient><path id="star-shape" d="M2 0L2.5 1.5L4 2L2.5 2.5L2 4L1.5 2.5L0 2L1.5 1.5L2 0Z" fill="#a855f7"></path></defs><g id="icon-group"><circle cx="32" cy="28" r="24" fill="url(#nebula-glow)"></circle><g class="stars"><use href="#star-shape" x="30" y="14" transform="scale(1.5)" style="transform-box: fill-box; transform-origin: center center;"></use><use href="#star-shape" x="22" y="20" transform="scale(0.8)" style="transform-box: fill-box; transform-origin: center center;"></use><use href="#star-shape" x="40" y="18" transform="scale(1)" style="transform-box: fill-box; transform-origin: center center;"></use><circle cx="28" cy="10" r="1" fill="#a855f7" fill-opacity="0.8"></circle><circle cx="36" cy="12" r="0.8" fill="#a855f7" fill-opacity="0.6"></circle><circle cx="18" cy="26" r="1.2" fill="#a855f7" fill-opacity="0.7"></circle><circle cx="46" cy="24" r="1" fill="#a855f7" fill-opacity="0.7"></circle></g><path fill="#DDE0ED" fill-rule="evenodd" clip-rule="evenodd" d="M32 36C25 36 19 33 12 36V54C19 51 25 53 32 56C39 53 45 51 52 54V36C45 33 39 36 32 36ZM32 56V36C32 36 32 36 32 36V56Z"></path><path d="M32 38V54" stroke="#DDE0ED" stroke-width="2" stroke-linecap="round" opacity="0.3"></path></g></svg>